# xmcd
#
# Track frame offsets: 
#        150
#        16048
#        34027
#        42337
#        59927
#        64585
#        82722
#        93893
#        117595
#        152921
#
# Disc length: 2295 seconds
#
# Revision: 0
# Processed by: cddbd v1.5.2PL0 Copyright (c) Steve Scherf et al.
# Submitted via: ExactAudioCopyFreeDBPlugin 1.0
#
DISCID=7808f50a
DTITLE=Gravelroad - The Bloody Scalp Of Burt Merlin
DYEAR=2013
DGENRE=Blues
TTITLE0=The Run
TTITLE1=Cocaine Baby
TTITLE2=Monkey With A Wig
TTITLE3=Maybe The Wind
TTITLE4=Med Pass!
TTITLE5=Bottom Of The World
TTITLE6=Death Bed Blues
TTITLE7=Last Night's Dream
TTITLE8=Space
TTITLE9=Bring Me Back
EXTD=
EXTT0=
EXTT1=
EXTT2=
EXTT3=
EXTT4=
EXTT5=
EXTT6=
EXTT7=
EXTT8=
EXTT9=
PLAYORDER=
